<svg width="334" height="94" viewBox="0 0 334 94" fill="none" xmlns="http://www.w3.org/2000/svg">
<path d="M19.0721 76.8C16.0001 76.8 13.0134 76.288 10.1121 75.264C7.21074 74.24 4.82141 72.704 2.94407 70.656C0.981405 68.5227 7.20024e-05 65.792 7.20024e-05 62.464C7.20024e-05 58.4534 1.57874 54.3147 4.73607 50.048C7.89341 45.7814 12.2454 42.368 17.7921 39.808C22.5707 37.6747 27.5627 36.1387 32.7681 35.2C38.0587 34.176 43.5201 33.664 49.1521 33.664C53.1627 33.664 57.1307 33.8347 61.0561 34.176C64.9814 34.432 68.9067 34.816 72.8321 35.328C77.0987 30.6347 81.4081 26.1974 85.7601 22.016C90.1121 17.7494 94.4214 14.08 98.6881 11.008C103.04 7.93603 107.349 5.93069 111.616 4.99203C109.227 4.99203 106.283 4.86403 102.784 4.60802C99.2854 4.2667 95.5307 3.92536 91.5201 3.58403C87.5947 3.2427 83.6267 3.07203 79.6161 3.07203C73.8134 3.07203 68.3521 3.66936 63.2321 4.86403C58.1974 6.0587 54.3147 8.53336 51.5841 12.288C50.8161 13.3974 50.2614 14.464 49.9201 15.488C49.5787 16.512 49.4081 17.4934 49.4081 18.432C49.4081 19.6267 49.6641 20.6934 50.1761 21.632C50.5174 21.9734 50.9014 22.3574 51.3281 22.784C51.7547 23.1254 52.1387 23.296 52.4801 23.296C52.1387 23.6374 51.7121 23.808 51.2001 23.808C50.6027 23.808 50.0054 23.68 49.4081 23.424C48.8961 23.0827 48.4694 22.7414 48.1281 22.4C47.2747 21.4614 46.6347 20.3947 46.2081 19.2C45.7814 17.92 45.5681 16.6827 45.5681 15.488C45.5681 13.0987 46.1227 11.0934 47.2321 9.47203C49.7067 6.22936 52.7787 3.84003 56.4481 2.30403C60.2027 0.768031 64.8961 3.05176e-05 70.5281 3.05176e-05C71.2107 3.05176e-05 71.8934 3.05176e-05 72.5761 3.05176e-05C73.3441 3.05176e-05 74.0694 0.0426966 74.7521 0.128029C81.1521 0.469363 87.4241 1.10936 93.5681 2.04803C99.7121 2.98669 106.24 3.45602 113.152 3.45602C116.907 3.45602 120.277 3.28536 123.264 2.94403C126.336 2.51736 128.341 1.79203 129.28 0.768028H129.536C130.56 0.768028 131.072 1.3227 131.072 2.43203C130.987 3.88269 130.219 4.86403 128.768 5.37603C127.403 5.88803 125.867 6.14403 124.16 6.14403C122.795 6.14403 121.429 6.0587 120.064 5.88803C118.784 5.71736 117.717 5.58936 116.864 5.50403C112.597 5.76003 108.117 7.38136 103.424 10.368C98.8161 13.2694 94.1654 16.9814 89.4721 21.504C84.7787 25.9414 80.1281 30.6774 75.5201 35.712C77.0561 35.968 78.5921 36.224 80.1281 36.48C81.7494 36.736 83.3281 37.0347 84.8641 37.376C87.6801 33.8774 90.5814 30.5067 93.5681 27.264C96.5547 24.0214 99.4561 21.0347 102.272 18.304C104.149 16.4267 106.197 14.6347 108.416 12.928C110.635 11.2214 112.811 9.81336 114.944 8.70403C117.077 7.50936 118.955 6.91203 120.576 6.91203C119.467 7.76536 117.76 9.34403 115.456 11.648C113.152 13.8667 111.019 16.0427 109.056 18.176C106.667 20.8214 103.893 23.936 100.736 27.52C97.6641 31.104 94.6347 34.816 91.6481 38.656C93.2694 38.9974 94.8481 39.3387 96.3841 39.68C98.0054 40.0214 99.6267 40.4054 101.248 40.832C101.931 40.9174 102.272 41.1734 102.272 41.6C102.272 41.7707 102.101 41.9414 101.76 42.112C101.504 42.2827 101.163 42.3254 100.736 42.24L90.3681 40.192C86.9547 44.4587 83.8401 48.5547 81.0241 52.48C78.2934 56.4054 76.3307 59.52 75.1361 61.824C74.5387 62.9334 74.0267 64.0854 73.6001 65.28C73.1734 66.3894 72.9601 67.4134 72.9601 68.352C72.9601 70.0587 73.6854 70.912 75.1361 70.912C76.0747 70.912 77.3547 70.4854 78.9761 69.632C81.4507 68.1814 83.6267 66.4747 85.5041 64.512C87.4667 62.5494 89.3014 60.5867 91.0081 58.624C91.3494 58.624 91.5201 58.88 91.5201 59.392C91.5201 60.16 91.3494 60.7574 91.0081 61.184C87.0827 65.792 83.7974 68.9494 81.1521 70.656C78.5921 72.2774 75.7334 73.088 72.5761 73.088C70.5281 73.088 69.0347 72.6187 68.0961 71.68C67.2427 70.656 66.8161 69.4187 66.8161 67.968C66.8161 66.5174 67.1147 64.9387 67.7121 63.232C68.3947 61.5254 69.2054 59.8614 70.1441 58.24C71.8507 55.2534 73.8561 52.1387 76.1601 48.896C78.4641 45.568 80.9387 42.24 83.5841 38.912C81.9627 38.656 80.3414 38.4 78.7201 38.144C77.1841 37.888 75.5627 37.6747 73.8561 37.504C70.3574 41.4294 66.9014 45.2694 63.4881 49.024C60.0747 52.7787 56.7894 56.192 53.6321 59.264C50.4747 62.336 47.1894 65.2374 43.7761 67.968C40.3627 70.6134 36.6507 72.7467 32.6401 74.368C28.6294 75.9894 24.1067 76.8 19.0721 76.8ZM19.5841 71.936C22.4854 71.936 25.5147 71.5947 28.6721 70.912C31.8294 70.2294 35.2427 68.864 38.9121 66.816C42.6667 64.768 46.7627 61.7387 51.2001 57.728C54.4427 54.7414 57.7281 51.4987 61.0561 48C64.3841 44.416 67.7547 40.7894 71.1681 37.12C68.8641 36.864 66.5174 36.6507 64.1281 36.48C61.8241 36.3094 59.4774 36.224 57.0881 36.224C50.6027 36.224 43.9467 36.5654 37.1201 37.248C30.3787 37.8454 23.8507 39.6374 17.5361 42.624C12.6721 44.7574 9.04541 47.4454 6.65607 50.688C4.18141 53.9307 2.94407 57.0454 2.94407 60.032C2.94407 63.2747 4.35207 66.0907 7.16807 68.48C9.98407 70.784 14.1227 71.936 19.5841 71.936ZM161.684 70.528C157.417 70.528 154.132 69.5894 151.828 67.712C149.609 65.7494 148.5 63.0614 148.5 59.648C148.5 59.2214 148.543 58.7094 148.628 58.112C148.713 57.5147 148.799 57.0027 148.884 56.576C149.396 53.6747 150.633 50.9014 152.596 48.256C154.644 45.5254 157.076 43.0934 159.892 40.96C162.793 38.8267 165.823 37.0774 168.98 35.712C172.223 34.3467 175.337 33.5787 178.324 33.408C178.239 32.9814 178.153 32.4694 178.068 31.872C178.068 31.1894 178.068 30.4214 178.068 29.568C178.068 27.008 178.836 24.4054 180.372 21.76C181.908 19.0294 183.956 16.5547 186.516 14.336C189.161 12.032 192.105 10.1974 195.348 8.83203C198.591 7.38136 201.919 6.65603 205.332 6.65603C205.673 6.65603 206.057 6.65603 206.484 6.65603C206.996 6.65603 207.423 6.69869 207.764 6.78403C209.983 7.04003 211.945 7.7227 213.652 8.83203C215.359 9.85603 216.212 11.3067 216.212 13.184C216.212 13.6107 216.127 14.1654 215.956 14.848C215.103 17.5787 213.396 20.0534 210.836 22.272C208.361 24.4907 205.417 26.112 202.004 27.136C201.663 27.2214 201.364 27.3067 201.108 27.392C200.852 27.392 200.639 27.392 200.468 27.392C200.127 27.392 199.956 27.3067 199.956 27.136C199.956 26.624 200.511 26.1547 201.62 25.728C204.351 24.448 206.697 22.8267 208.66 20.864C210.623 18.816 211.903 16.5974 212.5 14.208C212.671 13.0134 212.372 11.904 211.604 10.88C210.921 9.85603 209.257 9.34403 206.612 9.34403C204.393 9.34403 201.876 10.0694 199.06 11.52C196.244 12.8854 193.343 14.9334 190.356 17.664C188.564 19.2854 186.943 21.2907 185.492 23.68C184.041 26.0694 182.761 28.5867 181.652 31.232C181.652 31.3174 181.609 31.4454 181.524 31.616C181.439 31.7867 181.396 31.9574 181.396 32.128C181.225 32.4694 181.14 32.8534 181.14 33.28C183.615 33.1947 185.663 33.664 187.284 34.688C188.223 35.2 188.607 35.5414 188.436 35.712C188.18 36.48 187.199 36.864 185.492 36.864C183.273 36.864 181.567 36.5654 180.372 35.968C179.263 35.3707 178.623 34.6454 178.452 33.792C174.953 34.3894 171.497 35.968 168.084 38.528C164.756 41.088 161.94 44.1174 159.636 47.616C157.332 51.1147 155.881 54.656 155.284 58.24C155.028 59.52 154.9 60.7147 154.9 61.824C154.9 63.872 155.455 65.536 156.564 66.816C157.759 68.096 159.892 68.736 162.964 68.736C165.609 68.736 168.297 68.1387 171.028 66.944C173.844 65.664 176.532 64.0427 179.092 62.08C181.652 60.032 183.913 57.7707 185.876 55.296C187.839 52.8214 189.289 50.3894 190.228 48H189.844L185.748 46.976L178.068 45.568C178.068 45.568 177.641 45.7814 176.788 46.208C175.935 46.5494 174.911 46.9334 173.716 47.36C172.607 47.7867 171.497 48 170.388 48C168.852 48 168.084 47.6587 168.084 46.976C168.084 46.2934 168.596 45.6534 169.62 45.056C170.729 44.3734 172.052 44.032 173.588 44.032C174.185 44.032 174.74 44.032 175.252 44.032C175.849 44.032 176.447 44.1174 177.044 44.288L179.604 42.368C181.311 41.344 183.103 40.4907 184.98 39.808C186.857 39.1254 188.777 38.784 190.74 38.784C192.788 38.8694 194.281 39.3387 195.22 40.192C196.244 41.0454 196.756 42.112 196.756 43.392C196.756 44.7574 196.457 46.0374 195.86 47.232H195.476C195.903 47.3174 196.372 47.36 196.884 47.36C197.396 47.36 197.908 47.36 198.42 47.36C201.151 47.36 203.967 46.9334 206.868 46.08C209.855 45.2267 212.372 43.9467 214.42 42.24C216.468 40.448 217.492 38.2294 217.492 35.584C217.492 34.9014 217.321 34.1334 216.98 33.28C216.724 32.4267 216.212 31.872 215.444 31.616C215.956 31.4454 216.468 31.36 216.98 31.36C218.431 31.36 219.668 31.872 220.692 32.896C221.801 33.92 222.356 35.1574 222.356 36.608C222.356 39.68 221.289 42.1547 219.156 44.032C217.108 45.9094 214.633 47.2747 211.732 48.128C208.916 48.896 206.313 49.28 203.924 49.28C202.559 49.28 201.151 49.28 199.7 49.28C198.249 49.1947 196.671 49.024 194.964 48.768L194.068 50.176C192.788 52.224 190.953 54.4427 188.564 56.832C186.26 59.136 183.615 61.3547 180.628 63.488C177.641 65.536 174.527 67.2427 171.284 68.608C168.041 69.888 164.841 70.528 161.684 70.528ZM190.356 46.592C190.527 46.592 190.612 46.592 190.612 46.592L191.124 44.8C191.209 44.544 191.252 44.2027 191.252 43.776C191.252 43.008 191.039 42.368 190.612 41.856C190.185 41.2587 189.417 40.96 188.308 40.96C188.052 40.96 187.796 40.96 187.54 40.96C187.284 40.96 187.028 41.0027 186.772 41.088C186.175 41.1734 185.492 41.3867 184.724 41.728C183.956 41.984 183.145 42.3254 182.292 42.752L180.884 43.648C180.713 43.7334 180.457 43.8614 180.116 44.032C179.86 44.2027 179.647 44.3734 179.476 44.544H179.22L182.164 45.184C182.932 45.2694 183.7 45.3974 184.468 45.568C185.236 45.7387 186.004 45.8667 186.772 45.952L190.356 46.592ZM275.701 93.568C271.349 93.568 267.424 92.288 263.925 89.728C260.512 87.168 258.336 83.456 257.397 78.592C252.192 77.1414 248.437 74.496 246.133 70.656C243.829 66.7307 242.677 62.208 242.677 57.088C242.677 52.224 243.573 47.1894 245.365 41.984C247.242 36.7787 249.845 31.9574 253.173 27.52C256.501 22.9974 260.469 19.3707 265.077 16.64C269.685 13.824 274.762 12.416 280.309 12.416C283.808 12.416 286.581 13.2694 288.629 14.976C290.762 16.5974 292.298 18.7307 293.237 21.376C294.176 23.936 294.645 26.5814 294.645 29.312C294.645 30.1654 294.602 31.0187 294.517 31.872C294.432 32.64 294.304 33.4507 294.133 34.304C295.157 33.792 296.181 33.28 297.205 32.768C298.314 32.256 299.424 31.7867 300.533 31.36L302.325 30.592C303.776 27.0934 305.312 23.68 306.933 20.352C308.554 16.9387 310.389 13.7814 312.437 10.88C314.144 8.49069 316.192 6.35736 318.581 4.48003C321.056 2.60269 323.744 1.66402 326.645 1.66402C329.29 1.66402 331.168 2.26136 332.277 3.45602C333.386 4.56536 333.941 5.97336 333.941 7.68003C333.941 10.0694 333.13 12.3307 331.509 14.464C329.973 16.5974 327.968 18.6027 325.493 20.48C323.018 22.272 320.33 23.9787 317.429 25.6C314.613 27.136 311.882 28.5014 309.237 29.696C307.53 34.816 305.738 39.9787 303.861 45.184C302.069 50.304 299.85 55.168 297.205 59.776C294.56 64.2987 291.061 68.3094 286.709 71.808C283.466 74.4534 279.925 76.416 276.085 77.696C272.33 78.976 268.704 79.616 265.205 79.616C264.608 79.616 264.01 79.5734 263.413 79.488C262.901 79.488 262.389 79.4454 261.877 79.36C262.56 82.7734 264.01 85.6747 266.229 88.064C268.448 90.5387 271.818 91.776 276.341 91.776C277.706 91.776 278.986 91.5627 280.181 91.136C281.376 90.7947 282.741 90.112 284.277 89.088C284.277 89.088 284.277 89.0454 284.277 88.96C284.362 88.96 284.448 88.96 284.533 88.96C284.789 88.96 284.917 89.216 284.917 89.728C284.917 90.3254 284.405 90.9227 283.381 91.52C282.442 92.1174 281.248 92.5867 279.797 92.928C278.346 93.3547 276.981 93.568 275.701 93.568ZM310.133 27.136C313.461 25.5147 316.746 23.7227 319.989 21.76C323.232 19.712 325.92 17.536 328.053 15.232C330.186 12.8427 331.253 10.368 331.253 7.80803C331.253 6.61336 330.954 5.58936 330.357 4.73603C329.845 3.79736 328.864 3.32803 327.413 3.32803C325.792 3.32803 324.213 3.88269 322.677 4.99203C321.226 6.01603 319.946 7.25336 318.837 8.70403C317.728 10.1547 316.789 11.5627 316.021 12.928C314.912 15.0614 313.845 17.3654 312.821 19.84C311.882 22.2294 310.986 24.6614 310.133 27.136ZM257.141 76.672C257.056 76.2454 257.013 75.8187 257.013 75.392C257.013 74.9654 257.013 74.5814 257.013 74.24C257.013 68.7787 258.506 63.744 261.493 59.136C264.48 54.528 268.49 50.304 273.525 46.464C278.645 42.624 284.32 39.1254 290.549 35.968C291.061 34.0054 291.317 32 291.317 29.952C291.317 27.4774 290.976 25.0454 290.293 22.656C289.61 20.2667 288.416 18.2614 286.709 16.64C285.088 15.0187 282.826 14.208 279.925 14.208C275.488 14.208 271.306 15.616 267.381 18.432C263.541 21.248 260.17 24.9174 257.269 29.44C254.368 33.8774 252.064 38.6987 250.357 43.904C248.736 49.024 247.925 53.888 247.925 58.496C247.925 62.848 248.608 66.688 249.973 70.016C251.338 73.2587 253.728 75.4774 257.141 76.672ZM261.621 77.44H262.133C264.949 77.44 268.149 76.6294 271.733 75.008C275.402 73.3867 279.285 70.4427 283.381 66.176C287.648 61.7387 291.061 56.6614 293.621 50.944C296.266 45.1414 298.784 39.2534 301.173 33.28L293.365 37.376C291.744 42.5814 288.97 47.616 285.045 52.48C281.205 57.344 277.066 61.3974 272.629 64.64C272.032 65.0667 271.477 65.28 270.965 65.28C270.538 65.28 270.325 65.152 270.325 64.896C270.325 64.64 270.41 64.4267 270.581 64.256C274.336 61.44 278.048 57.856 281.717 53.504C285.386 49.152 288.032 44.4587 289.653 39.424C284.789 42.24 280.224 45.4827 275.957 49.152C271.69 52.736 268.192 56.6614 265.461 60.928C262.816 65.1094 261.493 69.5894 261.493 74.368C261.493 74.88 261.493 75.392 261.493 75.904C261.493 76.416 261.536 76.928 261.621 77.44Z" fill="#B5263E"/>
</svg>
